<?xml version="1.0" encoding="utf-8"?><svg viewBox="0 0 56 56" xmlns="http://www.w3.org/2000/svg" xmlns:xlink="http://www.w3.org/1999/xlink"><style>:root>svg{display:none}:root>svg:target{display:block}</style><svg fill="none" viewBox="0 0 56 56" id="callback" xmlns="http://www.w3.org/2000/svg"><circle cx="28" cy="28" r="27" stroke="#fff" stroke-width="2"/><g clip-path="url(#aa)" fill="#fff"><path d="M34.519 32.314a2.626 2.626 0 0 0-3.719 0l-1.269 1.268a23.291 23.291 0 0 1-7.114-7.114l1.27-1.268a2.624 2.624 0 0 0 0-3.719l-2.477-2.467a2.564 2.564 0 0 0-1.846-.77 2.623 2.623 0 0 0-1.864.77l-1.19 1.18a5.574 5.574 0 0 0-1.435 4.595c.28 3.28 2.433 7.227 5.749 10.552 3.316 3.325 7.306 5.469 10.587 5.784.245.013.49.013.735 0a5.31 5.31 0 0 0 3.859-1.435l1.181-1.19a2.626 2.626 0 0 0 .77-1.864 2.566 2.566 0 0 0-.77-1.846l-2.467-2.476Zm1.233 4.952-1.19 1.181a4 4 0 0 1-3.202.875c-2.844-.245-6.466-2.257-9.459-5.25-2.992-2.992-5.005-6.588-5.276-9.432a3.964 3.964 0 0 1 .875-3.203l1.234-1.19a.875.875 0 0 1 .621-.253.875.875 0 0 1 .621.253l2.477 2.503a.875.875 0 0 1 0 1.234l-1.75 1.75a.875.875 0 0 0-.14 1.058 24.052 24.052 0 0 0 3.788 4.883 24.048 24.048 0 0 0 4.883 3.789.875.875 0 0 0 1.058-.14l1.75-1.75a.875.875 0 0 1 1.234 0l2.476 2.476a.875.875 0 0 1 .254.621.875.875 0 0 1-.254.595ZM37.275 18.716A13.054 13.054 0 0 0 28 14.875a.875.875 0 1 0 0 1.75 11.377 11.377 0 0 1 11.375 11.471.875.875 0 0 0 1.75 0 13.046 13.046 0 0 0-3.85-9.38Z"/><path d="M32.296 23.721a5.25 5.25 0 0 1 1.549 3.771.875.875 0 1 0 1.75 0 7.001 7.001 0 0 0-7-7.087.875.875 0 1 0 0 1.75 5.25 5.25 0 0 1 3.701 1.566Z"/></g><defs><clipPath id="aa"><path fill="#fff" transform="translate(14 14)" d="M0 0h28v28H0z"/></clipPath></defs></svg><svg viewBox="0 0 18 18" fill="none" id="close" xmlns="http://www.w3.org/2000/svg"><path d="M17.121 18a.879.879 0 0 0 .622-1.5L1.5.257A.879.879 0 0 0 .257 1.501L16.5 17.743a.876.876 0 0 0 .621.257Z" fill="#fff"/><path d="M.879 18a.877.877 0 0 0 .621-.257L17.743 1.5A.879.879 0 1 0 16.5.257L.257 16.5A.88.88 0 0 0 .88 18Z" fill="#fff"/></svg><svg viewBox="0 0 8 32" fill="none" id="dots" xmlns="http://www.w3.org/2000/svg"><circle cx="4" cy="4" r="4" fill="#000"/><circle cx="4" cy="28" r="4" fill="#000"/></svg><svg viewBox="0 0 56 56" fill="none" id="people" xmlns="http://www.w3.org/2000/svg"><circle cx="28" cy="28" r="27" stroke="#fff" stroke-width="2"/><path d="M36.7 27.681a6.987 6.987 0 0 0-8.695-10.908A6.99 6.99 0 0 0 19.3 27.681a9.931 9.931 0 0 0-5.3 8.825v3a1 1 0 0 0 1 1h26a1 1 0 0 0 1-1v-3a9.931 9.931 0 0 0-5.3-8.825ZM32 17.506a4.993 4.993 0 0 1 2.055 9.546c-.077.035-.154.067-.232.1-.247.1-.501.179-.761.237-.05.011-.1.017-.151.027a5 5 0 0 1-.88.09c-.133 0-.267-.01-.4-.023-.05 0-.1 0-.15-.01a5.05 5.05 0 0 1-1.635-.482c-.019-.009-.041-.008-.06-.016-.1-.048-.2-.09-.289-.144l.021-.03c.459-.59.82-1.249 1.07-1.952l.032-.084c.114-.336.203-.68.265-1.029.009-.05.016-.1.024-.155.058-.355.088-.715.091-1.075a7.038 7.038 0 0 0-.091-1.073l-.024-.155a7.057 7.057 0 0 0-.265-1.029l-.031-.084a7.016 7.016 0 0 0-1.071-1.95c-.008-.01-.013-.022-.021-.032A4.968 4.968 0 0 1 32 17.506Zm-13 5a4.987 4.987 0 0 1 8.61-3.442c.172.18.33.372.474.575.044.062.084.128.125.192.14.215.262.441.367.675.025.057.044.115.066.172.105.26.188.527.248.8.007.03.01.06.015.091.127.621.127 1.261 0 1.882-.006.031-.008.061-.015.091-.06.273-.143.541-.248.8-.022.057-.041.115-.066.172-.105.234-.227.46-.367.674-.041.064-.08.13-.125.192a5.146 5.146 0 0 1-.645.745 4.99 4.99 0 0 1-1.38.932 2.882 2.882 0 0 1-.247.1c-.24.096-.489.173-.742.23-.063.014-.128.022-.192.033-.271.05-.547.078-.823.083h-.11a4.954 4.954 0 0 1-.823-.083c-.064-.011-.129-.019-.192-.033a5.033 5.033 0 0 1-.742-.23l-.246-.1A5 5 0 0 1 19 22.507Zm13 16H16v-2a7.95 7.95 0 0 1 5.318-7.536 6.978 6.978 0 0 0 5.364 0c.334.122.66.266.974.431.208.107.4.23.6.352.13.081.262.16.387.25.193.136.375.285.554.438.115.1.229.2.337.3a7.877 7.877 0 0 1 1.428 1.843c.1.172.192.344.276.523.084.18.158.375.23.566.063.166.13.331.182.5.07.232.119.472.168.712.03.142.069.281.09.425.06.396.09.796.092 1.196v2Zm8 0h-6v-2c0-.313-.018-.623-.046-.93-.008-.09-.022-.179-.032-.269a9.543 9.543 0 0 0-.157-.936 9.766 9.766 0 0 0-.167-.662c-.021-.072-.04-.145-.062-.216a9.908 9.908 0 0 0-1.205-2.527l-.039-.057a9.887 9.887 0 0 0-.551-.74l-.007-.01a9.054 9.054 0 0 0-.645-.717h.041c.282.037.566.057.851.06h.055c.264-.002.526-.02.788-.05.082-.01.163-.026.245-.039.213-.032.423-.075.63-.127.06-.015.12-.029.18-.046.271-.074.538-.165.8-.272A7.95 7.95 0 0 1 40 36.506v2Z" fill="#fff"/></svg><svg viewBox="0 0 24 24" fill="none" id="resultDecr" xmlns="http://www.w3.org/2000/svg"><circle cx="11.816" cy="11.709" r="11.603" fill="#FE78B3"/></svg><svg fill="none" viewBox="0 0 56 56" id="sale" xmlns="http://www.w3.org/2000/svg"><circle cx="28" cy="28" r="27" stroke="#fff" stroke-width="2"/><path d="M25.072 41.984a2.791 2.791 0 0 1-2.788-2.788 2.79 2.79 0 0 1 2.788-2.787 2.791 2.791 0 0 1 2.788 2.787 2.791 2.791 0 0 1-2.788 2.788Zm0-3.825a1.04 1.04 0 1 0 1.038 1.038c0-.573-.465-1.038-1.038-1.038ZM34.765 41.984a2.791 2.791 0 0 1-2.788-2.788 2.79 2.79 0 0 1 2.788-2.787 2.791 2.791 0 0 1 2.788 2.787 2.792 2.792 0 0 1-2.788 2.788Zm0-3.825a1.039 1.039 0 0 0 0 2.075 1.04 1.04 0 0 0 0-2.075ZM36.806 34.247H23.06c-1.337 0-2.48-.91-2.778-2.214L17.43 19.574a.553.553 0 0 0-.304-.376l-2.367-1.097a1.094 1.094 0 0 1 .92-1.984l2.366 1.097a2.753 2.753 0 0 1 1.517 1.872l2.854 12.46c.069.303.334.514.645.514h13.746a.66.66 0 0 0 .646-.512l2.218-9.543a.651.651 0 0 0-.126-.562.652.652 0 0 0-.519-.25H22.837a1.094 1.094 0 1 1 0-2.188h16.188c.875 0 1.688.393 2.232 1.077.544.685.742 1.566.544 2.418l-2.219 9.544a2.839 2.839 0 0 1-2.776 2.203Z" fill="#fff"/></svg><svg viewBox="0 0 27 32" fill="none" id="security" xmlns="http://www.w3.org/2000/svg"><path d="M26.926 5C21.364 5 17.103 3.44 13.5 0 9.896 3.44 5.635 5 .073 5c0 8.957-1.888 21.789 13.425 27 15.315-5.211 13.427-18.043 13.427-27ZM12.387 20.762l-4.473-4.391 2.003-1.966 2.47 2.425 4.695-4.609 2.003 1.966-6.698 6.575Z" fill="#E7E7E7"/></svg></svg>